<?xml version="1.0" encoding="UTF-8" standalone="no"?>
<!-- Created with Inkscape (http://www.inkscape.org/) -->

<svg
   width="64"
   height="64"
   viewBox="0 0 16.933333 16.933333"
   version="1.1"
   id="svg5"
   inkscape:version="1.1 (c68e22c387, 2021-05-23)"
   sodipodi:docname="galleryLogo.svg"
   inkscape:export-filename="C:\Users\ZZ\galleryLogo.ico"
   inkscape:export-xdpi="96"
   inkscape:export-ydpi="96"
   xmlns:inkscape="http://www.inkscape.org/namespaces/inkscape"
   xmlns:sodipodi="http://sodipodi.sourceforge.net/DTD/sodipodi-0.dtd"
   xmlns="http://www.w3.org/2000/svg"
   xmlns:svg="http://www.w3.org/2000/svg">
  <sodipodi:namedview
     id="namedview7"
     pagecolor="#ffffff"
     bordercolor="#666666"
     borderopacity="1.0"
     inkscape:pageshadow="2"
     inkscape:pageopacity="0.0"
     inkscape:pagecheckerboard="0"
     inkscape:document-units="mm"
     showgrid="false"
     units="px"
     width="64px"
     inkscape:zoom="5.7869809"
     inkscape:cx="28.771479"
     inkscape:cy="42.941216"
     inkscape:window-width="1920"
     inkscape:window-height="1001"
     inkscape:window-x="-9"
     inkscape:window-y="-9"
     inkscape:window-maximized="1"
     inkscape:current-layer="layer2" />
  <defs
     id="defs2">
    <rect
       x="-0.17280168"
       y="0.17280168"
       width="63.93662"
       height="64.97343"
       id="rect8006" />
    <rect
       x="1.2096117"
       y="3.2832318"
       width="58.579768"
       height="55.814941"
       id="rect2498" />
  </defs>
  <g
     inkscape:label="图层 1"
     inkscape:groupmode="layer"
     id="layer1">
    <text
       xml:space="preserve"
       transform="scale(0.26458333)"
       id="text2496"
       style="line-height:1.25;font-family:sans-serif;font-size:12px;white-space:pre;shape-inside:url(#rect2498)" />
    <rect
       style="fill:#ffffff;fill-opacity:1;stroke:none;stroke-width:0.468951;stroke-miterlimit:3.3;paint-order:markers fill stroke"
       id="rect12528"
       width="16.933332"
       height="16.933332"
       x="4.4504802e-07"
       y="4.4504802e-07" />
  </g>
  <g
     inkscape:groupmode="layer"
     id="layer2"
     inkscape:label="图层 2">
    <g
       aria-label="悠"
       transform="matrix(0.35356699,0,0,0.35271218,0.04182823,-3.6966226)"
       id="text8004"
       style="font-size:56px;line-height:1.25;white-space:pre;shape-inside:url(#rect8006)">
      <path
         d="m 19.890625,55.481123 q -2.53125,0.09375 -4.5,-0.9375 -0.375,-0.65625 -0.46875,-1.40625 v -4.6875 l 0.09375,-1.453125 -0.09375,-3.65625 h 2.53125 l 0.09375,6.140625 -0.09375,2.625 q 0,0.9375 0.75,1.59375 1.03125,0.5625 2.34375,0.609375 1.3125,0.04687 2.625,0.140625 l 0.5625,-0.1875 h 3.9375 l 1.5,0.09375 q 1.40625,-0.28125 2.53125,-1.03125 1.125,-1.96875 1.875,-4.125 h 2.578125 v 1.21875 q -0.796875,1.96875 -1.828125,3.9375 -1.5,0.9375 -3.328125,1.03125 -1.828125,0.09375 -3.703125,0.09375 l -1.5,-0.09375 -0.09375,0.09375 z M 7.375,53.418623 v -2.0625 l 0.65625,-6.328125 h 2.53125 v 1.59375 q -0.28125,1.640625 -0.421875,3.375 Q 10,51.731123 9.90625,53.418623 Z m 31.21875,-0.46875 v -1.125 Q 38.125,49.481123 37.421875,47.184248 36.71875,44.840498 35.96875,42.590498 H 38.5 q 1.3125,2.34375 1.921875,5.015625 0.609375,2.625 0.796875,5.34375 z M 25.421875,46.996748 q -0.75,-1.125 -1.640625,-2.203125 -0.890625,-1.078125 -0.796875,-2.578125 h 2.53125 q 1.03125,1.875 2.34375,3.5625 l 0.1875,0.09375 v 1.03125 z m -16.921875,-6 v -1.03125 L 8.40625,37.434248 8.5,37.340498 v -4.6875 l 0.1875,-2.90625 -0.28125,-4.875 h -0.1875 l -0.1875,0.28125 -0.46875,0.46875 H 7.375 l -1.5,1.78125 -0.46875,0.46875 H 2.875 v -1.125 l 0.46875,-0.28125 v -0.1875 h 0.1875 v -0.1875 l 3.1875,-3.609375 h 0.1875 l 2.15625,-3 H 9.25 l 0.1875,-0.46875 H 9.625 q 0.65625,-1.03125 1.265625,-2.109375 0.609375,-1.078125 1.21875,-2.203125 l 2.625,-0.09375 v 1.125 q -0.84375,1.6875 -1.96875,3.28125 -1.078125,1.59375 -2.203125,3.1875 h 0.28125 l 0.375,9.890625 -0.1875,1.59375 v 4.6875 l -0.09375,0.46875 0.1875,2.15625 z m 10.546875,-1.5 v -1.03125 q 2.25,-1.03125 4.546875,-1.828125 2.296875,-0.796875 4.265625,-2.390625 v -0.1875 l 0.75,-0.5625 q 1.125,-0.65625 1.875,-1.78125 l -0.65625,-1.03125 h -0.1875 l -0.28125,-0.28125 -0.28125,-0.28125 q -1.59375,-2.0625 -2.625,-4.3125 -1.03125,-2.25 -1.6875,-4.734375 h -0.65625 v 2.390625 l 0.09375,2.4375 -0.1875,2.4375 h -2.53125 v -1.5 l 0.1875,-2.25 -0.09375,-0.09375 v -4.453125 q 0.1875,-1.59375 0.28125,-3.234375 0.09375,-1.640625 0.1875,-3.328125 h 2.53125 v 1.875 l -0.28125,4.59375 0.84375,0.09375 h 3.9375 l 2.4375,0.1875 5.578125,-0.375 H 43.75 v 1.03125 l -0.09375,0.09375 h -3.75 q -0.375,2.484375 -1.40625,4.6875 -1.03125,2.203125 -2.53125,4.171875 h -0.234375 l -1.5,2.15625 0.375,0.28125 q 1.03125,1.125 2.296875,2.015625 1.3125,0.890625 2.625,1.546875 1.3125,0.5625 2.578125,1.21875 1.265625,0.65625 2.578125,1.125 l 0.09375,1.125 H 42.25 q -2.625,-1.125 -5.25,-2.390625 -2.578125,-1.265625 -4.828125,-3.140625 l -2.34375,1.6875 v 0.1875 q -2.53125,1.40625 -5.109375,2.625 -2.578125,1.21875 -5.671875,1.21875 z m -4.96875,-3.09375 v -0.375 l -0.09375,-2.53125 0.09375,-2.71875 -0.09375,-0.09375 v -4.3125 l 0.09375,-0.09375 v -4.078125 h 2.53125 l 0.09375,3.140625 -0.1875,4.3125 0.09375,0.09375 v 4.78125 l -0.09375,0.28125 0.09375,1.59375 z m 18.46875,-6.65625 v -0.09375 h 0.1875 l 2.625,-4.125 h 0.1875 q 1.078125,-2.0625 1.546875,-4.453125 h -1.546875 l -1.5,0.1875 h -6.5625 v 0.1875 q 0.9375,1.59375 1.59375,3.28125 0.65625,1.640625 1.59375,3.234375 h 0.1875 l 0.46875,0.84375 h 0.1875 l 0.9375,1.03125 z"
         style="font-size:48px;font-family:Kyuchan_Font;-inkscape-font-specification:Kyuchan_Font"
         id="path13010" />
    </g>
  </g>
</svg>
